<svg width="223" height="73" viewBox="0 0 223 73" fill="none" xmlns="http://www.w3.org/2000/svg">
<path d="M32.0833 34.2083C32.0833 35.4239 31.6004 36.5897 30.7409 37.4492C29.8813 38.3088 28.7155 38.7917 27.4999 38.7917C26.2844 38.7917 25.1186 38.3088 24.259 37.4492C23.3995 36.5897 22.9166 35.4239 22.9166 34.2083C22.9166 31.7772 23.8824 29.4456 25.6015 27.7265C27.3206 26.0074 29.6521 25.0417 32.0833 25.0417C34.5144 25.0417 36.846 26.0074 38.5651 27.7265C40.2842 29.4456 41.2499 31.7772 41.2499 34.2083C41.2499 37.8551 39.8013 41.3524 37.2227 43.931C34.644 46.5097 31.1467 47.9583 27.4999 47.9583C23.8532 47.9583 20.3559 46.5097 17.7772 43.931C15.1986 41.3524 13.7499 37.8551 13.7499 34.2083C13.7499 29.346 15.6815 24.6829 19.1197 21.2447C22.5578 17.8065 27.221 15.875 32.0833 15.875C36.9456 15.875 41.6087 17.8065 45.0469 21.2447C48.4851 24.6829 50.4166 29.346 50.4166 34.2083C50.4166 40.2862 48.0022 46.1152 43.7045 50.4129C39.4068 54.7106 33.5778 57.125 27.4999 57.125C21.4221 57.125 15.5931 54.7106 11.2954 50.4129C6.99771 46.1152 4.58328 40.2862 4.58328 34.2083C4.57483 28.2353 6.52271 22.4239 10.1291 17.6625C10.4803 17.1446 10.9337 16.7041 11.4615 16.3682C11.9894 16.0322 12.5804 15.8079 13.1982 15.709C13.8161 15.6101 14.4476 15.6387 15.0539 15.7932C15.6603 15.9476 16.2285 16.2246 16.7238 16.607C17.219 16.9894 17.6307 17.4691 17.9335 18.0167C18.2363 18.5642 18.4238 19.1679 18.4844 19.7907C18.545 20.4134 18.4775 21.042 18.286 21.6376C18.0944 22.2333 17.783 22.7834 17.3708 23.2542" stroke="black" stroke-width="4" stroke-linecap="round" stroke-linejoin="round"/>
<path d="M93.5938 25.8267C93.3665 23.8097 92.429 22.2472 90.7812 21.1392C89.1335 20.017 87.0597 19.456 84.5597 19.456C82.7699 19.456 81.2216 19.7401 79.9148 20.3082C78.608 20.8622 77.5923 21.6293 76.8679 22.6094C76.1577 23.5753 75.8026 24.6761 75.8026 25.9119C75.8026 26.9489 76.044 27.8437 76.527 28.5966C77.0241 29.3494 77.6705 29.9815 78.4659 30.4929C79.2756 30.9901 80.142 31.4091 81.0653 31.75C81.9886 32.0767 82.8764 32.3466 83.7287 32.5597L87.9901 33.6676C89.3821 34.0085 90.8097 34.4702 92.2727 35.0526C93.7358 35.6349 95.0923 36.402 96.3423 37.3537C97.5923 38.3054 98.6009 39.4844 99.3679 40.8906C100.149 42.2969 100.54 43.9801 100.54 45.9403C100.54 48.4119 99.9006 50.6065 98.6222 52.5241C97.358 54.4418 95.5185 55.9545 93.1037 57.0625C90.7031 58.1705 87.7983 58.7244 84.3892 58.7244C81.1222 58.7244 78.2955 58.206 75.9091 57.169C73.5227 56.1321 71.6548 54.6619 70.3054 52.7585C68.956 50.8409 68.2102 48.5682 68.0682 45.9403H74.6733C74.8011 47.517 75.3125 48.831 76.2074 49.8821C77.1165 50.919 78.2741 51.6932 79.6804 52.2045C81.1009 52.7017 82.6562 52.9503 84.3466 52.9503C86.2074 52.9503 87.8622 52.6591 89.3111 52.0767C90.7741 51.4801 91.9247 50.6562 92.7628 49.6051C93.6009 48.5398 94.0199 47.2969 94.0199 45.8764C94.0199 44.5838 93.6506 43.5256 92.9119 42.7017C92.1875 41.8778 91.2003 41.196 89.9503 40.6562C88.7145 40.1165 87.3153 39.6406 85.7528 39.2287L80.5966 37.8224C77.1023 36.8707 74.3324 35.4716 72.2869 33.625C70.2557 31.7784 69.2401 29.3352 69.2401 26.2955C69.2401 23.7812 69.9219 21.5866 71.2855 19.7116C72.6491 17.8366 74.4957 16.3807 76.8253 15.3438C79.1548 14.2926 81.7827 13.767 84.7088 13.767C87.6634 13.767 90.2699 14.2855 92.5284 15.3224C94.8011 16.3594 96.5909 17.7869 97.8977 19.6051C99.2045 21.4091 99.8864 23.483 99.9432 25.8267H93.5938ZM114.267 38.5682V58H107.896V14.3636H114.181V30.5994H114.586C115.353 28.8381 116.525 27.4389 118.102 26.402C119.679 25.3651 121.738 24.8466 124.281 24.8466C126.525 24.8466 128.485 25.3082 130.162 26.2315C131.852 27.1548 133.159 28.5327 134.082 30.3651C135.02 32.1832 135.488 34.456 135.488 37.1832V58H129.118V37.9503C129.118 35.5497 128.5 33.6889 127.264 32.3679C126.028 31.0327 124.309 30.3651 122.108 30.3651C120.602 30.3651 119.252 30.6847 118.059 31.3239C116.88 31.9631 115.95 32.9006 115.268 34.1364C114.6 35.358 114.267 36.8352 114.267 38.5682ZM145.947 19.48C147.347 19.6 148.567 19.98 149.607 20.62C150.647 21.22 151.167 22.14 151.167 23.38C151.167 24.3 150.727 25.04 149.847 25.6C149.007 26.12 147.987 26.38 146.787 26.38C145.627 26.38 144.827 26.08 144.387 25.48C143.947 24.88 143.727 24.26 143.727 23.62C143.727 22.42 143.847 21.42 144.087 20.62C144.367 19.82 144.987 19.44 145.947 19.48ZM150.747 46.06V47.8C150.747 49.36 150.787 50.84 150.867 52.24C150.987 53.6 151.127 54.98 151.287 56.38C151.247 56.78 150.947 57.2 150.387 57.64C149.827 58.04 149.327 58.24 148.887 58.24C148.127 58.24 147.347 58.1 146.547 57.82C145.787 57.5 145.327 57.12 145.167 56.68C144.927 55.4 144.807 54.26 144.807 53.26C144.807 49.98 144.707 46.3 144.507 42.22C144.347 38.62 144.267 36.1 144.267 34.66C144.267 33.94 144.627 33.32 145.347 32.8C146.067 32.28 146.827 32.02 147.627 32.02C148.787 32.02 149.587 32.28 150.027 32.8C150.507 33.32 150.747 34.14 150.747 35.26V46.06ZM165.201 46.8991L165.158 39.1222H166.266L179.306 25.2727H186.934L172.061 41.0398H171.06L165.201 46.8991ZM159.341 58V14.3636H165.712V58H159.341ZM180.009 58L168.29 42.446L172.679 37.9929L187.828 58H180.009ZM202.264 58.7244C200.19 58.7244 198.315 58.3409 196.639 57.5739C194.963 56.7926 193.635 55.6634 192.654 54.1861C191.689 52.7088 191.206 50.8977 191.206 48.7528C191.206 46.9062 191.561 45.3864 192.271 44.1932C192.981 43 193.94 42.0554 195.147 41.3594C196.355 40.6634 197.704 40.1378 199.196 39.7827C200.687 39.4276 202.207 39.1577 203.755 38.973C205.716 38.7457 207.306 38.5611 208.528 38.419C209.75 38.2628 210.637 38.0142 211.191 37.6733C211.745 37.3324 212.022 36.7784 212.022 36.0114V35.8622C212.022 34.0014 211.497 32.5597 210.446 31.5369C209.409 30.5142 207.86 30.0028 205.801 30.0028C203.656 30.0028 201.966 30.4787 200.73 31.4304C199.508 32.3679 198.663 33.4119 198.194 34.5625L192.207 33.1989C192.917 31.2102 193.954 29.6051 195.318 28.3835C196.696 27.1477 198.279 26.2528 200.069 25.6989C201.859 25.1307 203.741 24.8466 205.716 24.8466C207.022 24.8466 208.407 25.0028 209.87 25.3153C211.348 25.6136 212.725 26.1676 214.004 26.9773C215.297 27.7869 216.355 28.9446 217.179 30.4503C218.002 31.9418 218.414 33.8807 218.414 36.267V58H212.193V53.5256H211.937C211.525 54.3494 210.907 55.1591 210.083 55.9545C209.26 56.75 208.201 57.4105 206.909 57.9361C205.616 58.4616 204.068 58.7244 202.264 58.7244ZM203.649 53.6108C205.41 53.6108 206.916 53.2628 208.166 52.5668C209.43 51.8707 210.389 50.9616 211.042 49.8395C211.71 48.7031 212.044 47.4886 212.044 46.196V41.9773C211.816 42.2045 211.376 42.4176 210.723 42.6165C210.083 42.8011 209.352 42.9645 208.528 43.1065C207.704 43.2344 206.902 43.3551 206.12 43.4688C205.339 43.5682 204.686 43.6534 204.16 43.7244C202.924 43.8807 201.795 44.1435 200.772 44.5128C199.764 44.8821 198.954 45.4148 198.343 46.1108C197.747 46.7926 197.449 47.7017 197.449 48.8381C197.449 50.4148 198.031 51.608 199.196 52.4176C200.36 53.2131 201.845 53.6108 203.649 53.6108Z" fill="black"/>
</svg>
